<svg xmlns="http://www.w3.org/2000/svg" xmlns:xlink="http://www.w3.org/1999/xlink" version="1.1" x="0px" y="0px" viewBox="0 0 100 100" style="enable-background:new 0 0 100 100;" xml:space="preserve"><path d="M50,83.5c-16.2,0-33.7-3-33.7-9.6s17.5-9.6,33.7-9.6s33.7,3,33.7,9.6S66.2,83.5,50,83.5z M50,67.6  c-19.7,0-30.5,4.2-30.5,6.3c0,2.2,10.8,6.3,30.5,6.3s30.5-4.2,30.5-6.3C80.5,71.8,69.7,67.6,50,67.6z"></path><path d="M19.8,60.1c-0.9,0-1.6-0.7-1.6-1.6V23.2c0-0.2,0-5.9,4.5-8.8c3.7-2.5,9.2-2.2,16.2,0.9c0.1,0.1,17.3,7,29.2,4.2  c0.9-0.2,1.7,0.3,1.9,1.2c0.2,0.9-0.3,1.7-1.2,1.9c-12.9,3-30.4-4.1-31.2-4.4c-5.9-2.5-10.5-2.9-13.2-1.1c-3,2-3,6.1-3,6.1v35.2  C21.4,59.3,20.7,60.1,19.8,60.1z"></path><path d="M82.1,60.1c-0.9,0-1.6-0.7-1.6-1.6V23.2v-0.1c0-0.1,0.2-3.4-2.4-5.2c-2.2-1.5-8.1-2.9-23,4.3c-0.8,0.4-1.8,0.1-2.2-0.7  c-0.4-0.8-0.1-1.8,0.7-2.2c12.6-6.1,21.4-7.5,26.3-4.1c3.9,2.7,3.8,7.4,3.7,8.1v35.2C83.7,59.3,83,60.1,82.1,60.1z"></path><path d="M50,91.9c-28,0-50-8.6-50-19.5c0-6.2,7.1-11.9,19.4-15.5c1-0.3,25.1-7.3,54-0.8l9.1,2.5c0,0,0,0,0.1,0  c8.1,2.7,17.4,6.6,17.4,13.8C100,83.3,78,91.9,50,91.9z M48.4,56.6C32,56.6,20.5,60,20.3,60C9.6,63.1,3.2,67.8,3.2,72.4  C3.2,80.2,22,88.6,50,88.6s46.8-8.4,46.8-16.2c0-3.9-4.8-7.4-15.1-10.7l-9-2.5C63.9,57.2,55.7,56.6,48.4,56.6z"></path></svg>